<svg width="45" height="30" xmlns="http://www.w3.org/2000/svg">
 <g>
  <title>Layer 1</title>
  <g id="svg_11">
   <path fill="#fff" stroke="#000" d="m44.0295,29.28106l-8.63489,-10.1887l0,0c9.14797,-3.07348 11.75833,-8.86325 6.03066,-13.37588c-5.72757,-4.5126 -17.91893,-6.27115 -28.16471,-4.06268c-10.24578,2.20846 -15.19318,7.66115 -11.42943,12.5971c3.76355,4.93595 15.00635,7.73977 25.97365,6.47746l16.22471,8.5527l0.00001,0z" id="svg_10"/>
   <path fill="#fff" stroke="#000" d="m10.48318,10.08096l2.03717,0l0.6295,-2.02507l0.6295,2.02507l2.03717,0l-1.6481,1.25155l0.62953,2.02507l-1.6481,-1.25158l-1.6481,1.25158l0.62953,-2.02507l-1.6481,-1.25155z" id="svg_4"/>
   <path fill="#fff" stroke="#000" d="m19.81652,10.08096l2.03717,0l0.6295,-2.02507l0.6295,2.02507l2.03717,0l-1.6481,1.25155l0.62953,2.02507l-1.6481,-1.25158l-1.6481,1.25158l0.62953,-2.02507l-1.6481,-1.25155z" id="svg_7"/>
   <path fill="#fff" stroke="#000" d="m29.51349,10.08096l2.03717,0l0.6295,-2.02507l0.6295,2.02507l2.03717,0l-1.6481,1.25155l0.62953,2.02507l-1.6481,-1.25158l-1.6481,1.25158l0.62953,-2.02507l-1.6481,-1.25155z" id="svg_8"/>
  </g>
 </g>

</svg>